#!OML:ASF H:\Martial Arts Walks\Project 1\Capture day 1\Session 1\male.ASF
:FULLY-SPECIFIED
:DEGREES
2141
root -4.19477 18.6599 -26.015 -270.099 47.1614 -274.322
lowerback 24.2056 2.27431 -5.10087
upperback 4.60776 1.5925 -7.81416
thorax -8.26557 1.1022 -6.31704
lowerneck -4.71917 6.96026 2.99435
upperneck 10.8928 11.4707 -15.3274
head 5.12674 5.17423 -4.49513
rclavicle -1.27222e-014 -9.22361e-014
rhumerus -6.64798 53.2762 -56.0125
rradius 103.855
rwrist 4.10538
rhand 6.41218 -22.2108
rfingers 7.12502
rthumb 31.716 -49.4732
lclavicle -1.27222e-014 -9.22361e-014
lhumerus -36.027 36.1031 49.2425
lradius 38.3964
lwrist 17.7383
lhand -37.8377 15.629
lfingers 7.12502
lthumb -10.8827 45.327
rfemur -12.7354 4.39679 -21.273
rtibia 20.4494
rfoot -3.79793 -28.8331
rtoes 14.1172
lfemur -55.2053 45.1532 29.8072
ltibia 90.5529
lfoot -13.0822 11.1763
ltoes 5.87814
2142
root -4.24837 18.593 -26.1294 -269.603 47.2564 -273.292
lowerback 24.8729 2.1694 -4.84842
upperback 4.86001 1.51494 -7.51774
thorax -8.33589 1.06692 -6.12973
lowerneck -4.62755 7.31454 2.44896
upperneck 10.9132 12.0005 -15.1615
head 5.1289 5.43129 -4.31407
rclavicle 5.08889e-014 -1.24042e-013
rhumerus -5.70851 54.1656 -55.4873
rradius 103.946
rwrist 5.71592
rhand 7.33306 -21.4368
rfingers 7.12502
rthumb 32.5927 -48.5221
lclavicle 5.08889e-014 -1.24042e-013
lhumerus -35.2755 34.9406 51.1662
lradius 40.615
lwrist 17.7204
lhand -37.0028 16.1183
lfingers 7.12502
lthumb -10.0774 45.857
rfemur -13.5231 2.86515 -21.5117
rtibia 22.8608
rfoot -5.24217 -27.9864
rtoes 15.6643
lfemur -60.8449 48.539 26.7225
ltibia 97.3177
lfoot -14.6242 8.95311
ltoes 5.49829
2143
root -4.30145 18.5297 -26.2251 -269.1 47.3949 -272.198
lowerback 25.8036 2.3158 -4.56061
upperback 5.11133 1.75974 -7.33573
thorax -8.51113 1.19073 -6.21829
lowerneck -4.55428 7.34021 2.54348
upperneck 10.6993 11.9824 -15.1011
head 5.05004 5.44294 -4.31611
rclavicle -1.59028e-015 -6.36111e-015
rhumerus -5.93874 54.1499 -55.7825
rradius 104.134
rwrist 7.52451
rhand 7.66991 -21.5452
rfingers 7.12502
rthumb 32.9131 -48.5637
lclavicle -1.59028e-015 -6.36111e-015
lhumerus -33.8774 33.0327 53.5048
lradius 43.2161
lwrist 19.3643
lhand -36.3204 15.7266
lfingers 7.12502
lthumb -9.41891 45.4962
rfemur -14.2871 1.45381 -21.6199
rtibia 25.4868
rfoot -5.4781 -27.2726
rtoes 13.2707
lfemur -68.2297 52.1586 21.7082
ltibia 104.037
lfoot -15.7414 6.71478
ltoes 7.09173
2144
root -4.33755 18.447 -26.313 -269.083 48.4301 -271.597
lowerback 26.6473 2.52259 -3.79654
upperback 5.38581 2.23111 -6.89722
thorax -8.58891 1.40316 -6.35707
lowerneck -4.70685 7.36274 2.55969
upperneck 10.5131 11.9375 -14.8525
head 5.00009 5.4308 -4.24028
rclavicle 4.29375e-014 3.81667e-014
rhumerus -6.02617 54.0967 -56.0411
rradius 104.354
rwrist 8.51511
rhand 8.37983 -20.9247
rfingers 7.12502
rthumb 33.5881 -47.799
lclavicle 4.29375e-014 3.81667e-014
lhumerus -32.82 31.1055 55.5299
lradius 46.2579
lwrist 21.9181
lhand -36.0271 14.8542
lfingers 7.12502
lthumb -9.136 44.6363
rfemur -15.045 0.84892 -20.7094
rtibia 27.9086
rfoot -6.59739 -26.8719
rtoes 13.1418
lfemur -75.7315 56.1372 16.9326
ltibia 110.042
lfoot -17.0095 3.86933
ltoes 7.84343
2145
root -4.36268 18.3527 -26.3897 -269.379 50.4989 -271.463
lowerback 27.2039 2.63584 -2.01357
upperback 5.71441 2.8909 -6.4337
thorax -8.39087 1.68377 -7.0996
lowerneck -4.68647 7.46436 2.81604
upperneck 10.0135 11.9175 -14.5991
head 4.83973 5.45629 -4.20947
rclavicle 2.38542e-014 -6.36111e-014
rhumerus -6.13728 54.0306 -56.2673
rradius 104.801
rwrist 8.33587
rhand 8.0588 -20.9709
rfingers 7.12502
rthumb 33.2829 -47.911
lclavicle 2.38542e-014 -6.36111e-014
lhumerus -31.6253 29.0628 57.1127
lradius 49.5291
lwrist 25.1783
lhand -36.0869 14.2019
lfingers 7.12502
lthumb -9.19368 43.9815
rfemur -16.0192 0.613272 -18.5403
rtibia 30.1523
rfoot -7.04092 -26.8105
rtoes 11.8128
lfemur -83.9519 60.3766 11.9994
ltibia 115.244
lfoot -18.051 0.51052
ltoes 6.98341
2146
root -4.38938 18.2594 -26.4558 -269.302 52.7423 -270.839
lowerback 27.8923 2.62328 -0.316349
upperback 5.99485 3.38461 -5.79178
thorax -8.31501 1.88781 -7.55274
lowerneck -4.85494 7.4896 3.19103
upperneck 9.59507 11.8346 -14.5656
head 4.7523 5.43373 -4.26242
rclavicle 8.11041e-014 -1.11319e-013
rhumerus -5.91878 53.9938 -56.6111
rradius 104.952
rwrist 7.1144
rhand 8.28968 -20.8173
rfingers 7.12502
rthumb 33.5024 -47.7101
lclavicle 8.11041e-014 -1.11319e-013
lhumerus -30.9281 27.1807 58.483
lradius 53.1932
lwrist 28.4104
lhand -36.5593 13.9159
lfingers 7.12502
lthumb -9.64948 43.6749
rfemur -16.5978 0.300718 -16.164
rtibia 32.2574
rfoot -7.74233 -26.8609
rtoes 10.8804
lfemur -94.434 63.5875 4.52909
ltibia 119.844
lfoot -18.8306 -2.79789
ltoes 3.37433
2147
root -4.42309 18.1586 -26.5079 -268.849 54.6935 -269.74
lowerback 28.7945 2.47317 1.07723
upperback 6.21991 3.63294 -5.27452
thorax -8.42658 1.98202 -7.91939
lowerneck -4.74257 7.66136 3.16719
upperneck 8.9867 11.9114 -14.1987
head 4.53051 5.50936 -4.1505
rclavicle -8.26944e-014 -1.20861e-013
rhumerus -5.73052 54.0468 -56.988
rradius 105.31
rwrist 5.59007
rhand 8.30627 -21.4788
rfingers 7.12502
rthumb 33.5182 -48.3682
lclavicle -8.26944e-014 -1.20861e-013
lhumerus -30.6054 25.7825 59.3833
lradius 57.0943
lwrist 30.7317
lhand -37.0368 13.6512
lfingers 7.12502
lthumb -10.1102 43.3883
rfemur -16.961 -0.316597 -14.1035
rtibia 34.2857
rfoot -8.43626 -26.8305
rtoes 10.0245
lfemur -106.521 65.0554 -5.37478
ltibia 123.863
lfoot -19.5375 -5.07758
ltoes -2.74598
2148
root -4.46239 18.0621 -26.536 -267.608 55.7094 -267.954
lowerback 29.6268 2.2231 0.999323
upperback 6.3018 3.34291 -4.69622
thorax -8.82511 1.8356 -7.17117
lowerneck -4.2502 7.95224 3.00825
upperneck 8.03615 12.2265 -14.501
head 4.19885 5.71579 -4.22503
rclavicle 7.31528e-014 -8.26944e-014
rhumerus -4.66406 55.0152 -56.3758
rradius 105.842
rwrist 4.21698
rhand 8.28667 -22.3111
rfingers 7.12502
rthumb 33.4996 -49.2046
lclavicle 7.31528e-014 -8.26944e-014
lhumerus -31.3294 25.3647 59.788
lradius 61.2949
lwrist 32.3316
lhand -36.7744 14.3231
lfingers 7.12502
lthumb -9.85697 44.0724
rfemur -17.2611 -1.39691 -13.0559
rtibia 36.2428
rfoot -9.31648 -26.7105
rtoes 9.71765
lfemur -117.995 63.9629 -16.34
ltibia 127.302
lfoot -20.0933 -6.59317
ltoes -3.88582
